<svg width="23" height="22" viewBox="0 0 23 22" fill="none" xmlns="http://www.w3.org/2000/svg">
<path d="M19.2192 7.3425L13.215 2.53916C12.0417 1.60416 10.2083 1.595 9.04417 2.53L3.04001 7.3425C2.17834 8.03 1.65584 9.405 1.83917 10.4867L2.99417 17.3983C3.26001 18.9475 4.69917 20.1667 6.26667 20.1667H15.9833C17.5325 20.1667 18.9992 18.92 19.265 17.3892L20.42 10.4775C20.585 9.405 20.0625 8.03 19.2192 7.3425ZM11.8125 16.5C11.8125 16.8758 11.5008 17.1875 11.125 17.1875C10.7492 17.1875 10.4375 16.8758 10.4375 16.5V13.75C10.4375 13.3742 10.7492 13.0625 11.125 13.0625C11.5008 13.0625 11.8125 13.3742 11.8125 13.75V16.5Z" fill="#00565D"/>
</svg>
