<svg width="23" height="22" viewBox="0 0 23 22" fill="none" xmlns="http://www.w3.org/2000/svg">
<path d="M14.625 16.5H9.125C9.125 17.2293 9.41473 17.9288 9.93046 18.4445C10.4462 18.9603 11.1457 19.25 11.875 19.25C12.6043 19.25 13.3038 18.9603 13.8195 18.4445C14.3353 17.9288 14.625 17.2293 14.625 16.5Z" stroke="#B7A1CD" stroke-width="2" stroke-linecap="round" stroke-linejoin="round"/>
<path d="M18.6401 13.1817C18.8205 13.3623 18.9635 13.5767 19.061 13.8126C19.1586 14.0486 19.2086 14.3014 19.2084 14.5567V14.5567C19.2084 15.0721 19.0037 15.5664 18.6392 15.9308C18.2748 16.2953 17.7805 16.5 17.2651 16.5H6.48508C5.96968 16.5 5.47538 16.2953 5.11094 15.9308C4.74649 15.5664 4.54175 15.0721 4.54175 14.5567V14.5567C4.54152 14.3014 4.5916 14.0486 4.68912 13.8126C4.78663 13.5767 4.92968 13.3623 5.11008 13.1817L6.37508 11.9167V8.25C6.37508 6.79131 6.95454 5.39236 7.98599 4.36091C9.01744 3.32946 10.4164 2.75 11.8751 2.75V2.75C13.3338 2.75 14.7327 3.32946 15.7642 4.36091C16.7956 5.39236 17.3751 6.79131 17.3751 8.25V11.9167L18.6401 13.1817Z" stroke="#00565D" stroke-width="2" stroke-linecap="round" stroke-linejoin="round"/>
</svg>
