<svg width="23" height="22" viewBox="0 0 23 22" fill="none" xmlns="http://www.w3.org/2000/svg">
<path d="M18.64 13.1817C18.8204 13.3623 18.9634 13.5767 19.0609 13.8126C19.1584 14.0486 19.2085 14.3014 19.2083 14.5567V14.5567C19.2083 15.0721 19.0035 15.5664 18.6391 15.9308C18.2747 16.2953 17.7804 16.5 17.265 16.5H6.48496C5.96956 16.5 5.47526 16.2953 5.11082 15.9308C4.74637 15.5664 4.54163 15.0721 4.54163 14.5567V14.5567C4.5414 14.3014 4.59148 14.0486 4.68899 13.8126C4.78651 13.5767 4.92956 13.3623 5.10996 13.1817L6.37496 11.9167V8.25C6.37496 6.79131 6.95442 5.39236 7.98587 4.36091C9.01732 3.32946 10.4163 2.75 11.875 2.75V2.75C13.3337 2.75 14.7326 3.32946 15.764 4.36091C16.7955 5.39236 17.375 6.79131 17.375 8.25V11.9167L18.64 13.1817ZM14.625 16.5H9.12496C9.12496 17.2293 9.41469 17.9288 9.93042 18.4445C10.4461 18.9603 11.1456 19.25 11.875 19.25C12.6043 19.25 13.3038 18.9603 13.8195 18.4445C14.3352 17.9288 14.625 17.2293 14.625 16.5Z" stroke="#636363" stroke-width="2" stroke-linecap="round" stroke-linejoin="round"/>
</svg>
