<svg width="23" height="22" viewBox="0 0 23 22" fill="none" xmlns="http://www.w3.org/2000/svg">
<path d="M15.9583 15.5833V16.5C15.9583 16.7431 15.8618 16.9763 15.6898 17.1482C15.5179 17.3201 15.2848 17.4166 15.0417 17.4166H4.04167C3.79855 17.4166 3.56539 17.3201 3.39349 17.1482C3.22158 16.9763 3.125 16.7431 3.125 16.5V5.49998C3.125 5.25686 3.22158 5.02371 3.39349 4.8518C3.56539 4.67989 3.79855 4.58331 4.04167 4.58331H15.0417" stroke="#00565D" stroke-width="2" stroke-linecap="round" stroke-linejoin="round"/>
<path d="M15.0416 11.9166H19.625M7.70831 4.58331V10.0833L9.54165 9.16665L11.375 10.0833V4.58331H7.70831ZM19.625 8.24998H15.9583H19.625Z" stroke="#BA9FC8" stroke-width="2" stroke-linecap="round" stroke-linejoin="round"/>
</svg>
