<svg width="23" height="22" viewBox="0 0 23 22" fill="none" xmlns="http://www.w3.org/2000/svg">
<path d="M15.2917 6.41667C15.2917 7.14186 15.0766 7.85078 14.6737 8.45376C14.2708 9.05674 13.6982 9.5267 13.0282 9.80423C12.3582 10.0817 11.621 10.1544 10.9097 10.0129C10.1984 9.8714 9.54509 9.52218 9.0323 9.00939C8.5195 8.4966 8.17029 7.84326 8.02881 7.132C7.88733 6.42073 7.95994 5.68349 8.23746 5.01349C8.51498 4.3435 8.98495 3.77084 9.58793 3.36794C10.1909 2.96505 10.8998 2.75 11.625 2.75C12.5975 2.75 13.5301 3.13631 14.2177 3.82394C14.9054 4.51158 15.2917 5.44421 15.2917 6.41667ZM14.375 13.75H8.87502C7.65944 13.75 6.49366 14.2329 5.63411 15.0924C4.77457 15.952 4.29169 17.1178 4.29169 18.3333V18.3333C4.29169 18.5764 4.38826 18.8096 4.56017 18.9815C4.73208 19.1534 4.96524 19.25 5.20835 19.25H18.0417C18.2848 19.25 18.518 19.1534 18.6899 18.9815C18.8618 18.8096 18.9584 18.5764 18.9584 18.3333C18.9584 17.1178 18.4755 15.952 17.6159 15.0924C16.7564 14.2329 15.5906 13.75 14.375 13.75Z" stroke="#636363" stroke-width="2" stroke-linecap="round" stroke-linejoin="round"/>
</svg>
