<svg width="23" height="22" viewBox="0 0 23 22" fill="none" xmlns="http://www.w3.org/2000/svg">
<path d="M8.87502 13.75H14.375C15.5906 13.75 16.7564 14.2329 17.6159 15.0924C18.4755 15.952 18.9584 17.1178 18.9584 18.3333C18.9584 18.5764 18.8618 18.8096 18.6899 18.9815C18.518 19.1534 18.2848 19.25 18.0417 19.25H5.20835C4.96524 19.25 4.73208 19.1534 4.56017 18.9815C4.38826 18.8096 4.29169 18.5764 4.29169 18.3333C4.29169 17.1178 4.77457 15.952 5.63411 15.0924C6.49366 14.2329 7.65944 13.75 8.87502 13.75V13.75Z" stroke="#00565D" stroke-width="2" stroke-linecap="round" stroke-linejoin="round"/>
<path d="M11.625 10.0833C13.65 10.0833 15.2916 8.44171 15.2916 6.41667C15.2916 4.39162 13.65 2.75 11.625 2.75C9.59994 2.75 7.95831 4.39162 7.95831 6.41667C7.95831 8.44171 9.59994 10.0833 11.625 10.0833Z" stroke="#BA9FC8" stroke-width="2" stroke-linecap="round" stroke-linejoin="round"/>
</svg>
