<svg width="11" height="7" viewBox="0 0 11 7" fill="none" xmlns="http://www.w3.org/2000/svg">
<path d="M2.06607 0.299988C2.02117 0.300201 1.97817 0.321971 1.94642 0.360555C1.91468 0.39914 1.89677 0.45141 1.89659 0.505976C1.89677 0.560542 1.91468 0.612812 1.94642 0.651396C1.97817 0.68998 2.02117 0.711751 2.06607 0.711964H6.75679V5.42303H4.61679C4.55748 4.93031 4.21 4.54697 3.79169 4.54697C3.37338 4.54697 3.0259 4.93031 2.96659 5.42303H2.23687V4.52678C2.23696 4.49949 2.2326 4.47244 2.22404 4.44721C2.21549 4.42197 2.20291 4.39904 2.18704 4.37974C2.17116 4.36044 2.15229 4.34516 2.13153 4.33476C2.11077 4.32437 2.08852 4.31907 2.06607 4.31918C2.04372 4.31928 2.02162 4.32474 2.00101 4.33523C1.9804 4.34572 1.96169 4.36104 1.94595 4.38032C1.93022 4.39959 1.91776 4.42245 1.90929 4.44758C1.90082 4.47271 1.89651 4.49962 1.89659 4.52678V5.63063C1.89677 5.6852 1.91469 5.73746 1.94643 5.77605C1.97817 5.81463 2.02117 5.8364 2.06607 5.83662H2.9862C3.08143 6.27341 3.40636 6.59999 3.79169 6.59999C4.17702 6.59999 4.50195 6.27341 4.59718 5.83662H6.92759H7.70084C7.79607 6.27341 8.121 6.59999 8.50634 6.59999C8.89167 6.59999 9.21589 6.27341 9.31083 5.83662H10.0851C10.13 5.8364 10.173 5.81463 10.2047 5.77605C10.2365 5.73746 10.2544 5.6852 10.2546 5.63063V3.7101C10.2546 3.68353 10.2504 3.6572 10.2423 3.63255L9.60525 1.71363C9.59264 1.67554 9.571 1.64287 9.54307 1.61978C9.51513 1.59669 9.48218 1.58423 9.4484 1.58398H7.09739V0.505976C7.09721 0.451342 7.07925 0.399014 7.04744 0.360419C7.01562 0.321825 6.97254 0.300099 6.92759 0.299988H2.06607ZM1.32504 1.60821C1.3027 1.60832 1.28059 1.61377 1.25998 1.62426C1.23937 1.63475 1.22067 1.65008 1.20493 1.66935C1.18919 1.68863 1.17673 1.71149 1.16826 1.73662C1.1598 1.76175 1.15548 1.78866 1.15557 1.81582C1.15574 1.87038 1.17366 1.92265 1.2054 1.96124C1.23714 1.99982 1.28015 2.02159 1.32504 2.0218H3.89204C3.91439 2.02191 3.93653 2.01667 3.9572 2.00637C3.97788 1.99608 3.99668 1.98093 4.01254 1.96181C4.0284 1.94268 4.04101 1.91994 4.04964 1.89489C4.05827 1.86984 4.06276 1.84297 4.06284 1.81582C4.06293 1.78852 4.05858 1.76148 4.05002 1.73624C4.04147 1.71101 4.02889 1.68808 4.01301 1.66878C3.99714 1.64948 3.97827 1.63419 3.95751 1.6238C3.93675 1.6134 3.9145 1.60811 3.89204 1.60821H1.32504ZM7.09739 1.99757H9.33276L9.83254 3.50411H7.09739V1.99757ZM0.557765 2.92694C0.535394 2.92683 0.513226 2.93209 0.492529 2.94241C0.471832 2.95273 0.453012 2.96791 0.437148 2.98708C0.421283 3.00625 0.408684 3.02904 0.400073 3.05413C0.391462 3.07923 0.387007 3.10614 0.386963 3.13333C0.38705 3.16049 0.391537 3.18736 0.400168 3.21241C0.408798 3.23746 0.421404 3.26019 0.437264 3.27932C0.453125 3.29845 0.47193 3.31359 0.492605 3.32389C0.513281 3.33418 0.535422 3.33943 0.557765 3.33932H3.89204C3.91439 3.33943 3.93653 3.33418 3.9572 3.32389C3.97788 3.31359 3.99668 3.29845 4.01254 3.27932C4.0284 3.26019 4.04101 3.23746 4.04964 3.21241C4.05827 3.18736 4.06276 3.16049 4.06284 3.13333C4.0628 3.10614 4.05835 3.07923 4.04974 3.05413C4.04112 3.02904 4.02853 3.00625 4.01266 2.98708C3.9968 2.96791 3.97798 2.95273 3.95728 2.94241C3.93658 2.93209 3.91441 2.92683 3.89204 2.92694H0.557765ZM7.09739 3.9177H9.91428V5.42303H9.3301C9.27098 4.93031 8.92464 4.54697 8.50634 4.54697C8.08803 4.54697 7.74088 4.93031 7.68157 5.42303H7.09739V3.9177ZM3.77906 4.96057C3.7833 4.96043 3.78742 4.96057 3.79169 4.96057C4.06466 4.96057 4.28515 5.22999 4.28515 5.57247C4.28515 5.91496 4.06466 6.1864 3.79169 6.1864C3.51872 6.1864 3.29823 5.91496 3.29823 5.57247C3.29823 5.23534 3.512 4.96881 3.77906 4.96057ZM8.49371 4.96057C8.49795 4.96043 8.50207 4.96057 8.50634 4.96057C8.77931 4.96057 9.00013 5.22999 9.00013 5.57247C9.00013 5.91496 8.77931 6.1864 8.50634 6.1864C8.23336 6.1864 8.01288 5.91496 8.01288 5.57247C8.01288 5.23534 8.22665 4.96881 8.49371 4.96057Z" fill="#B89EC6"/>
</svg>
