<svg width="8" height="7" viewBox="0 0 8 7" fill="none" xmlns="http://www.w3.org/2000/svg">
<path d="M7.40936 2.84679L6.10678 3.99698L6.41152 5.63365C6.44466 5.8 6.36445 5.96795 6.20527 6.06519C6.05383 6.15894 5.85377 6.16858 5.69118 6.0901L4.08085 5.32344L2.48161 6.0901C2.31902 6.16832 2.11897 6.15841 1.96752 6.06519C1.80835 5.96795 1.72783 5.79973 1.76096 5.63338L2.06848 4.00899L0.763133 2.84645C0.62873 2.72778 0.582898 2.55394 0.644522 2.39643C0.702124 2.24294 0.854797 2.13044 1.03907 2.10526L2.8396 1.86846L3.64294 0.389861C3.72253 0.239587 3.89565 0.142883 4.08704 0.142883C4.27812 0.142883 4.45185 0.239587 4.53113 0.389861L5.33598 1.86846L7.13374 2.10526C7.318 2.13044 7.47037 2.24267 7.52798 2.39616C7.58991 2.55367 7.54407 2.72785 7.40936 2.84679Z" fill="#B89EC6"/>
</svg>
