<svg width="24" height="24" viewBox="0 0 24 24" fill="none" xmlns="http://www.w3.org/2000/svg">
<path d="M15 18H9C9 18.7956 9.31607 19.5587 9.87868 20.1213C10.4413 20.6839 11.2044 21 12 21C12.7956 21 13.5587 20.6839 14.1213 20.1213C14.6839 19.5587 15 18.7956 15 18Z" stroke="#FF6B7B" stroke-width="2" stroke-linecap="round" stroke-linejoin="round"/>
<path d="M18 9.00001V13L19.38 14.38C19.6769 14.6765 19.8791 15.0544 19.9611 15.4659C20.043 15.8774 20.001 16.3039 19.8404 16.6916C19.6798 17.0792 19.4078 17.4104 19.0588 17.6433C18.7098 17.8762 18.2996 18.0004 17.88 18H6.12004C5.70047 18.0004 5.29023 17.8762 4.94125 17.6433C4.59228 17.4104 4.32026 17.0792 4.15965 16.6916C3.99904 16.3039 3.95705 15.8774 4.03901 15.4659C4.12096 15.0544 4.32317 14.6765 4.62004 14.38L6.00004 13V9.00001C6.00004 7.40871 6.63218 5.88259 7.7574 4.75737C8.88262 3.63215 10.4087 3.00001 12 3.00001C13.0061 2.99805 13.9964 3.24908 14.88 3.73001" stroke="#1683D4" stroke-width="2" stroke-linecap="round" stroke-linejoin="round"/>
<path d="M14 6C14 6.79565 14.3161 7.55871 14.8787 8.12132C15.4413 8.68393 16.2044 9 17 9C17.7956 9 18.5587 8.68393 19.1213 8.12132C19.6839 7.55871 20 6.79565 20 6C20 5.20435 19.6839 4.44129 19.1213 3.87868C18.5587 3.31607 17.7956 3 17 3C16.2044 3 15.4413 3.31607 14.8787 3.87868C14.3161 4.44129 14 5.20435 14 6V6Z" stroke="#FF6B7B" stroke-width="2" stroke-linecap="round" stroke-linejoin="round"/>
</svg>
