<svg width="23" height="23" viewBox="0 0 23 23" fill="none" xmlns="http://www.w3.org/2000/svg">
<path d="M22.4998 4.22039C22.4998 1.91121 20.621 0.0324707 18.3118 0.0324707H15.9547C15.5208 0.0324707 15.169 0.384274 15.169 0.818185C15.169 1.2521 15.5208 1.6039 15.9547 1.6039H18.3118C19.7547 1.6039 20.9283 2.77748 20.9283 4.22039V17.8445C20.9283 19.2875 19.7547 20.461 18.3118 20.461H4.68768C3.24477 20.461 2.07118 19.2875 2.07118 17.8445V4.22039C2.07118 2.77748 3.24477 1.6039 4.68768 1.6039H12.8433C13.2772 1.6039 13.629 1.2521 13.629 0.818185C13.629 0.384274 13.2772 0.0324707 12.8433 0.0324707H4.68768C2.37849 0.0324707 0.499756 1.9112 0.499756 4.22039V17.8445C0.499756 20.1537 2.37849 22.0325 4.68768 22.0325H18.3118C20.621 22.0325 22.4998 20.1537 22.4998 17.8445V4.22039Z" fill="#B89EC6"/>
<path d="M11.4999 5.20288C8.28526 5.20288 5.66992 7.81822 5.66992 11.0328C5.66992 12.2482 6.04398 13.4145 6.75143 14.4047C7.00234 14.7569 7.49378 14.839 7.84751 14.5869C8.20047 14.3349 8.28219 13.8442 8.02974 13.4909C7.51412 12.7688 7.24134 11.919 7.24134 11.0328C7.24134 8.68449 9.15153 6.7743 11.4999 6.7743C13.8482 6.7743 15.7584 8.68449 15.7584 11.0328C15.7584 13.3811 13.8482 15.2913 11.4999 15.2913C11.0276 15.2913 10.5806 15.2188 10.172 15.0761C9.76231 14.933 9.31458 15.149 9.1711 15.5583C9.02761 15.9681 9.24361 16.4162 9.65334 16.5593C10.2292 16.7607 10.8503 16.8628 11.4999 16.8628C14.7145 16.8628 17.3298 14.2474 17.3298 11.0328C17.3298 7.81821 14.7145 5.20288 11.4999 5.20288Z" fill="#B89EC6"/>
<path d="M17.626 5.69203C18.06 5.69203 18.4118 5.34026 18.4118 4.90632C18.4118 4.47238 18.06 4.12061 17.626 4.12061C17.1921 4.12061 16.8403 4.47238 16.8403 4.90632C16.8403 5.34026 17.1921 5.69203 17.626 5.69203Z" fill="#B89EC6"/>
</svg>
