<svg width="14" height="15" viewBox="0 0 14 15" fill="none" xmlns="http://www.w3.org/2000/svg">
<path d="M3.53913 5.07507H0.979004V14.3335H3.53913V5.07507Z" fill="#B89EC6"/>
<path d="M2.20543 0.703613C1.26142 0.703613 0.640625 1.3935 0.640625 2.30949C0.640625 3.20808 1.2409 3.91536 2.16952 3.91536H2.19004C3.15458 3.91536 3.75485 3.20228 3.74972 2.30949C3.7292 1.3935 3.14945 0.703613 2.20543 0.703613Z" fill="#B89EC6"/>
<path d="M10.5328 4.98804C9.0655 4.98804 8.14714 5.89243 7.97783 6.53014V5.075H5.09961C5.13552 5.84605 5.09961 14.3334 5.09961 14.3334H7.97783V9.33027C7.97783 9.0462 7.96757 8.76793 8.0394 8.57082C8.23436 8.01427 8.66019 7.43453 9.42464 7.43453C10.4251 7.43453 10.8766 8.29254 10.8766 9.54477V14.3334H13.7805V9.18534C13.7805 6.32143 12.3542 4.98804 10.5328 4.98804Z" fill="#B89EC6"/>
</svg>
