<svg width="16" height="14" viewBox="0 0 16 14" fill="none" xmlns="http://www.w3.org/2000/svg">
<path d="M0.70394 0.555664C0.56076 0.555682 0.423448 0.625246 0.322205 0.749051C0.220961 0.872856 0.164077 1.04076 0.164062 1.21585V13.0992C0.164077 13.2743 0.220961 13.4422 0.322205 13.566C0.423448 13.6898 0.56076 13.7594 0.70394 13.7594H15.4606C15.6038 13.7594 15.7411 13.6898 15.8423 13.566C15.9436 13.4422 16.0004 13.2743 16.0005 13.0992V1.21585C16.0004 1.04076 15.9436 0.872856 15.8423 0.749051C15.7411 0.625246 15.6038 0.555682 15.4606 0.555664H0.70394ZM2.23359 1.87603H13.9309L8.08226 7.63201L2.23359 1.87603ZM1.24382 2.59124L7.74484 8.98678C7.8406 9.08052 7.9596 9.1316 8.08226 9.1316C8.20492 9.1316 8.32393 9.08052 8.41968 8.98678L14.9207 2.59124V12.439H1.24382V2.59124Z" fill="#B89EC6"/>
</svg>
