<svg width="19" height="21" viewBox="0 0 19 21" fill="none" xmlns="http://www.w3.org/2000/svg">
<path d="M16.625 6.125V7.875C16.625 8.10707 16.5416 8.32962 16.3931 8.49372C16.2447 8.65781 16.0433 8.75 15.8333 8.75C14.721 8.74782 13.6288 8.42189 12.6667 7.805V13.5625C12.6669 14.5728 12.4237 15.5649 11.962 16.4368C11.5003 17.3087 10.8369 18.029 10.0398 18.5235C9.24278 19.0181 8.34094 19.269 7.42704 19.2506C6.51315 19.2322 5.62018 18.9451 4.83998 18.4188C4.05977 17.8924 3.42049 17.1459 2.98787 16.256C2.55525 15.366 2.34491 14.3648 2.37847 13.3552C2.41204 12.3456 2.6883 11.3641 3.17885 10.5117C3.6694 9.65926 4.35653 8.96661 5.16958 8.505C5.29124 8.43337 5.42772 8.39809 5.5655 8.40266C5.70328 8.40722 5.8376 8.45147 5.95516 8.53102C6.07272 8.61057 6.16945 8.72267 6.23578 8.85623C6.30211 8.98978 6.33573 9.14017 6.33333 9.2925V11.4975C6.32487 11.703 6.24555 11.8971 6.11167 12.04C5.82735 12.3579 5.63837 12.7647 5.57035 13.2053C5.50233 13.6459 5.55856 14.099 5.73142 14.503C5.90428 14.9071 6.18541 15.2427 6.53666 15.4642C6.88792 15.6857 7.29231 15.7824 7.695 15.7413C8.20069 15.6701 8.66474 15.3949 8.99793 14.9685C9.33112 14.5421 9.50994 13.9946 9.5 13.4313V2.625C9.5 2.39294 9.58341 2.17038 9.73187 2.00628C9.88034 1.84219 10.0817 1.75 10.2917 1.75H11.9621C12.1507 1.74697 12.3341 1.81847 12.4792 1.95161C12.6243 2.08476 12.7217 2.27081 12.7538 2.47625C12.9037 3.25757 13.2909 3.9587 13.8511 4.46325C14.4113 4.9678 15.1107 5.24542 15.8333 5.25C16.0433 5.25 16.2447 5.34219 16.3931 5.50628C16.5416 5.67038 16.625 5.89294 16.625 6.125Z" fill="#B89EC6"/>
</svg>
