<svg width="17" height="18" viewBox="0 0 17 18" fill="none" xmlns="http://www.w3.org/2000/svg">
<path d="M11.8127 8.78313C11.33 8.35505 10.6041 8.41387 10.1954 8.9211L9.85794 9.33906C9.84545 9.35225 9.82814 9.35732 9.81083 9.35225C9.36564 9.19399 8.53584 8.74967 7.98971 7.54958C7.9849 7.53639 7.98682 7.52117 7.9974 7.50798L8.41854 6.99365C8.82429 6.49757 8.78009 5.73676 8.31758 5.30054L7.37721 4.40479C7.14837 4.18669 6.84838 4.07511 6.54261 4.09539C6.23492 4.11365 5.95224 4.25871 5.7455 4.50319L5.17916 5.17882C4.92533 5.48013 4.7734 5.86967 4.74551 6.27239C4.68878 7.13467 4.79744 9.33397 7.0051 11.162C7.1926 11.3385 8.7849 12.7851 10.5713 12.7851C10.9213 12.7851 11.28 12.7303 11.6348 12.5984C11.9204 12.4919 12.179 12.3073 12.378 12.0638L12.9319 11.3862C13.1338 11.1397 13.2319 10.8221 13.2078 10.4975C13.1828 10.1729 13.0405 9.87668 12.804 9.66669L11.8127 8.78313ZM12.1868 10.7106L11.6329 11.3882C11.5464 11.4948 11.4339 11.5749 11.3108 11.6216C9.62427 12.2444 7.67245 10.4012 7.65325 10.385L7.62536 10.3576C5.84365 8.88763 5.67058 7.2147 5.72732 6.34549C5.73982 6.16898 5.80617 6.00059 5.91674 5.87074L6.48308 5.19511C6.52251 5.14844 6.57155 5.1383 6.59847 5.13525H6.60808C6.635 5.13525 6.67923 5.14337 6.71866 5.17989L7.65903 6.07564C7.72537 6.13752 7.73018 6.24709 7.67345 6.32013L7.25231 6.83446C6.98694 7.16212 6.9254 7.62166 7.10231 8.00614C7.80423 9.54911 8.90421 10.1304 9.49748 10.3434C9.89652 10.4865 10.334 10.3586 10.608 10.0218L10.9455 9.60388C11.0042 9.53084 11.108 9.52374 11.1773 9.58359L12.1695 10.4692C12.2167 10.5108 12.2263 10.5625 12.2282 10.5889C12.2282 10.6092 12.2262 10.6609 12.1868 10.7106Z" fill="#B89EC6"/>
<path d="M8.92629 0.000285809C6.78689 0.000285809 4.77643 0.880819 3.26187 2.47552C0.608118 5.27533 0.159878 9.64865 2.15707 12.9699L0.648438 17.8889L5.09835 15.8762C8.20502 17.6627 12.0743 17.0834 14.5924 14.4276C17.7163 11.1318 17.7163 5.77237 14.5924 2.47628C13.0789 0.878534 11.0675 0 8.92599 0L8.92629 0.000285809ZM13.8963 13.6924C11.6367 16.0763 8.13097 16.5542 5.37901 14.8509L5.16267 14.7149L2.25317 16.0317L3.24065 12.8119L3.10507 12.6019C1.22241 9.6702 1.58106 5.71993 3.95892 3.21124C5.28582 1.81131 7.05033 1.04032 8.92624 1.04032C10.8022 1.04032 12.5666 1.81131 13.8936 3.21124C16.634 6.09831 16.6338 10.8022 13.8963 13.6924Z" fill="#B89EC6"/>
</svg>
