<svg width="16" height="16" viewBox="0 0 16 16" fill="none" xmlns="http://www.w3.org/2000/svg">
<path d="M14.176 2.92055C14.0381 2.75332 13.8924 2.5931 13.742 2.43748C12.2867 0.93611 10.2512 0 8 0C5.74882 0 3.71332 0.93611 2.25819 2.4377C2.10762 2.5931 1.96186 2.75353 1.82422 2.92077C0.684932 4.30312 0 6.07299 0 8C0 9.92701 0.684932 11.6969 1.824 13.0795C1.96186 13.2467 2.10762 13.4069 2.25797 13.5625C3.71332 15.0639 5.74882 16 8 16C10.2512 16 12.2867 15.0639 13.7418 13.5623C13.8924 13.4069 14.0381 13.2465 14.1758 13.0792C15.3151 11.6969 16 9.92701 16 8C16 6.07299 15.3151 4.30312 14.176 2.92055ZM10.3112 14.9677C10.9604 14.3445 11.5145 13.4687 11.9261 12.418C12.3978 12.6282 12.8338 12.8747 13.2245 13.1527C12.4191 13.9693 11.4238 14.5977 10.3112 14.9677ZM2.77545 13.1527C3.16625 12.8747 3.60197 12.6282 4.07386 12.418C4.48548 13.4687 5.03956 14.3448 5.68877 14.9677C4.57622 14.5977 3.58093 13.9693 2.77545 13.1527ZM5.68877 1.03233C5.03956 1.65545 4.48548 2.53129 4.07386 3.58203C3.60219 3.37184 3.16625 3.12526 2.77545 2.84734C3.58093 2.03068 4.57622 1.4023 5.68877 1.03233ZM13.2245 2.84734C12.8338 3.12526 12.398 3.37184 11.9261 3.58203C11.5145 2.53129 10.9604 1.65523 10.3112 1.03233C11.4238 1.4023 12.4191 2.03068 13.2245 2.84734ZM7.67123 7.67123H3.94981C3.9783 6.50214 4.15869 5.40362 4.45589 4.43814C5.43233 4.78992 6.52055 5.00099 7.67123 5.03496V7.67123ZM7.67123 8.32877V10.965C6.52055 10.999 5.43233 11.2101 4.45589 11.5619C4.1589 10.5964 3.9783 9.49786 3.94981 8.32877H7.67123ZM8.32877 8.32877H12.0502C12.0217 9.49786 11.8413 10.5964 11.5441 11.5619C10.5677 11.2101 9.47945 10.999 8.32877 10.965V8.32877ZM8.32877 7.67123V5.03496C9.47945 5.00099 10.5677 4.78992 11.5441 4.43814C11.8411 5.40362 12.0217 6.50214 12.0502 7.67123H8.32877ZM11.3311 3.82071C10.4224 4.14663 9.40581 4.34433 8.32877 4.37786V0.683836C9.57129 0.865315 10.6571 2.06444 11.3311 3.82071ZM7.67123 4.37764C6.59419 4.34411 5.57742 4.14663 4.66893 3.82049C5.3429 2.06422 6.42871 0.865315 7.67123 0.683616V4.37764ZM4.66893 12.1793C5.57764 11.8534 6.59419 11.6557 7.67123 11.6221V15.3162C6.42871 15.1347 5.3429 13.9356 4.66893 12.1793ZM8.32877 11.6224C9.40581 11.6559 10.4226 11.8534 11.3311 12.1795C10.6571 13.9356 9.57129 15.1347 8.32877 15.3162V11.6224ZM3.85447 4.19879C3.52197 5.23945 3.32252 6.41885 3.29271 7.67123H0.665863C0.73863 6.0274 1.35364 4.52208 2.3371 3.33129C2.79189 3.66247 3.30126 3.95441 3.85447 4.19879ZM3.29249 8.32877C3.32252 9.58115 3.52197 10.7605 3.85425 11.8012C3.30104 12.0456 2.79167 12.3375 2.33688 12.6687C1.35364 11.4779 0.73863 9.9726 0.665863 8.32877H3.29249ZM12.1455 11.8012C12.478 10.7605 12.6775 9.58115 12.7073 8.32877H15.3339C15.2612 9.9726 14.6461 11.4779 13.6627 12.6687C13.2081 12.3375 12.6987 12.0456 12.1455 11.8012ZM12.7075 7.67123C12.6775 6.41885 12.478 5.23945 12.1458 4.19879C12.699 3.95441 13.2083 3.66247 13.6631 3.33129C14.6464 4.52208 15.2614 6.0274 15.3341 7.67123H12.7075Z" fill="#B89EC6"/>
</svg>
