<svg width="17" height="16" viewBox="0 0 17 16" fill="none" xmlns="http://www.w3.org/2000/svg">
<path d="M11.783 8.97058C11.7438 8.86036 11.6394 8.77988 11.5138 8.76322L9.45341 8.48967L8.53189 6.78438C8.41953 6.57643 8.0463 6.57643 7.93394 6.78438L7.01243 8.48967L4.95202 8.76322C4.82647 8.77988 4.72209 8.86036 4.68284 8.97058C4.6436 9.08096 4.67633 9.20189 4.76735 9.28296L6.25816 10.6104L5.9061 12.4848C5.88476 12.5991 5.93606 12.7147 6.03881 12.7828C6.14156 12.8511 6.27802 12.8598 6.39006 12.806L8.23292 11.9211L10.0758 12.806C10.1246 12.8293 10.1779 12.8409 10.231 12.8409C10.3 12.8409 10.3689 12.8213 10.427 12.7828C10.5298 12.7147 10.5811 12.5991 10.5597 12.4848L10.2077 10.6104L11.6985 9.28296C11.7895 9.20189 11.8222 9.08096 11.783 8.97058ZM9.61641 10.2858C9.53792 10.3559 9.50209 10.4568 9.5205 10.5555L9.78804 11.9794L8.38811 11.3072C8.33958 11.2838 8.28617 11.2722 8.23292 11.2722C8.17967 11.2722 8.12626 11.2838 8.07773 11.3072L6.6778 11.9794L6.94534 10.5555C6.96374 10.4568 6.92792 10.3559 6.84943 10.2858L5.71671 9.27746L7.28193 9.06965C7.39055 9.05522 7.48434 8.9929 7.53287 8.9029L8.23292 7.60743L8.93297 8.9029C8.98149 8.9929 9.07529 9.05522 9.18391 9.06965L10.7491 9.27746L9.61641 10.2858Z" fill="#A74548"/>
<path d="M16.4038 2.29107C16.4038 1.61807 15.8066 1.0725 15.0698 1.0725H14.1527C13.9685 1.0725 13.8192 1.20889 13.8192 1.37714C13.8192 1.54539 13.9685 1.68178 14.1527 1.68178H15.0698C15.4382 1.68178 15.7368 1.95457 15.7368 2.29107V4.04277H1.72998C1.5458 4.04277 1.39649 4.17916 1.39649 4.34741C1.39649 4.51566 1.5458 4.65205 1.72998 4.65205H15.7368V12.4204H13.8192C13.0825 12.4204 12.4852 12.966 12.4852 13.639V15.3907H1.39649C1.02812 15.3907 0.729493 15.1179 0.729493 14.7814V2.29107C0.729493 1.95457 1.02812 1.68178 1.39649 1.68178H3.31409V2.43714C3.31409 2.60539 3.4634 2.74179 3.64759 2.74179H5.31507C5.49926 2.74179 5.64857 2.60539 5.64857 2.43714V1.68178H10.8178V2.43714C10.8178 2.60539 10.9671 2.74179 11.1513 2.74179H12.8187C13.0029 2.74179 13.1522 2.60539 13.1522 2.43714V0.304643C13.1522 0.136393 13.0029 0 12.8187 0H11.1513C10.9671 0 10.8178 0.136393 10.8178 0.304643V1.0725H5.64857V0.304643C5.64857 0.136393 5.49926 0 5.31507 0H3.64759C3.4634 0 3.31409 0.136393 3.31409 0.304643V1.0725H1.39649C0.659746 1.0725 0.0625 1.61807 0.0625 2.29107V14.7814C0.0625 15.4544 0.659746 16 1.39649 16H12.8187C12.9055 16 12.9907 15.9691 13.0545 15.9107L16.3061 12.9405C16.3699 12.8822 16.4006 12.8043 16.4007 12.7251H16.4038V2.29107ZM11.4848 0.609286H12.4852V2.1325H11.4848V0.609286ZM3.98109 0.609286H4.98158V2.1325H3.98109V0.609286ZM13.1522 14.9599V13.639C13.1522 13.303 13.4514 13.0297 13.8192 13.0297H15.2653L13.1522 14.9599Z" fill="#A74548"/>
</svg>
