<svg width="17" height="16" viewBox="0 0 17 16" fill="none" xmlns="http://www.w3.org/2000/svg">
<path fill-rule="evenodd" clip-rule="evenodd" d="M0.0195312 14.1538V3.07692C0.0195312 2.05769 0.803766 1.23077 1.77039 1.23077H2.93763V0.615385C2.93763 0.275377 3.19952 0 3.52125 0C3.8437 0 4.10486 0.275377 4.10486 0.615385V1.23077H12.2755V0.615385C12.2755 0.275377 12.5367 0 12.8592 0C13.1809 0 13.4428 0.275377 13.4428 0.615385V1.23077H14.61C15.5766 1.23077 16.3609 2.05769 16.3609 3.07692V14.1538C16.3609 14.6431 16.1763 15.1131 15.848 15.4592C15.5197 15.8054 15.0747 16 14.61 16H1.77039C0.803766 16 0.0195312 15.1731 0.0195312 14.1538ZM2.93763 2.46154H1.77039C1.44866 2.46154 1.18677 2.73692 1.18677 3.07692V5.53846H15.1936V3.07692C15.1936 2.73692 14.9317 2.46154 14.61 2.46154H13.4428V3.07692C13.4428 3.41693 13.1809 3.69231 12.8592 3.69231C12.5367 3.69231 12.2755 3.41693 12.2755 3.07692V2.46154H4.10486V3.07692C4.10486 3.41693 3.8437 3.69231 3.52125 3.69231C3.19952 3.69231 2.93763 3.41693 2.93763 3.07692V2.46154ZM1.18677 6.76923V14.1538C1.18677 14.4939 1.44866 14.7692 1.77039 14.7692H14.61C14.7654 14.7692 14.9128 14.7046 15.0222 14.5892C15.1323 14.4738 15.1936 14.3169 15.1936 14.1539V6.76924L1.18677 6.76923Z" fill="#A74548"/>
</svg>
