<svg width="20" height="19" viewBox="0 0 20 19" fill="none" xmlns="http://www.w3.org/2000/svg">
<path fill-rule="evenodd" clip-rule="evenodd" d="M7.96592 12.326C7.31397 11.9331 6.75715 11.4229 6.32864 10.8256L4.78911 12.2342C4.33616 12.6487 4.33616 13.3203 4.78911 13.7347C5.24206 14.1491 5.97605 14.1491 6.429 13.7347L7.96592 12.326ZM10.7344 5.2652C9.82933 4.95056 8.85272 4.84754 7.89264 4.96654L10.9578 2.1597C12.1229 1.13516 13.7917 0.747043 15.3494 1.13914C16.9073 1.53124 18.1248 2.64443 18.5534 4.07069C18.981 5.49612 18.5577 7.02288 17.4371 8.08817L14.3833 10.895C13.3762 11.8086 11.965 12.2462 10.5581 12.0809C9.15119 11.9156 7.90669 11.1657 7.18391 10.0485L7.85419 9.43525C8.31064 9.02878 9.03852 9.02878 9.49497 9.43525C10.4122 10.2649 11.8881 10.2649 12.8052 9.43525L15.853 6.64108C16.7502 5.80179 16.7415 4.45776 15.8347 3.62817C14.9279 2.79859 13.459 2.79048 12.5418 3.6114L10.7344 5.2652ZM13.4783 7.28475L15.0178 5.8761C15.4707 5.46165 15.4707 4.79006 15.0178 4.37561C14.5648 3.96117 13.8308 3.96117 13.3779 4.37561L11.841 5.78427C12.4929 6.17716 13.0498 6.68744 13.4783 7.28475ZM10.3215 8.67266C9.40422 7.84295 7.92749 7.84295 7.01033 8.67266L3.95388 11.4693C3.05669 12.3086 3.06541 13.6526 3.9722 14.4822C4.879 15.3118 6.34788 15.3199 7.26504 14.499L9.07251 12.8451C9.97756 13.1598 10.9542 13.2628 11.9143 13.1438L8.84908 15.9506C7.68396 16.9752 6.01516 17.3633 4.45744 16.9712C2.89956 16.5791 1.68205 15.4659 1.25352 14.0397C0.825866 12.6142 1.24916 11.0875 2.36978 10.0222L5.43495 7.21533C6.4421 6.30177 7.8533 5.86417 9.26021 6.02947C10.6671 6.19477 11.9116 6.94462 12.6335 8.0618L11.9632 8.67509C11.5067 9.08156 10.7797 9.08156 10.3233 8.67509L10.3215 8.67266ZM13.7846 12.6104C13.514 13.0935 13.1623 13.5351 12.7434 13.9184L9.67999 16.7151C8.2059 17.9576 6.13312 18.4104 4.20429 17.9113C2.27638 17.413 0.769131 16.0339 0.224644 14.27C-0.320826 12.5052 0.174025 10.6086 1.53204 9.25978L4.58849 6.45683C5.01003 6.07272 5.49354 5.75011 6.02244 5.50015C6.14026 5.28693 6.27466 5.0825 6.42478 4.88686C6.61591 4.63851 6.82974 4.40532 7.06364 4.1897L10.127 1.39554C11.6011 0.152986 13.6739 -0.299808 15.6027 0.19929C17.5306 0.697591 19.0379 2.0767 19.5824 3.84062C20.1278 5.60543 19.633 7.50198 18.275 8.85082L15.2185 11.6538C14.797 12.0379 14.3135 12.3605 13.7846 12.6104Z" fill="#B89EC6"/>
</svg>
