<svg width="13" height="12" viewBox="0 0 13 12" fill="none" xmlns="http://www.w3.org/2000/svg">
<path d="M9.84667 0.00198384H3.06213C3.03389 0.00198384 3.00347 0.00487129 2.97849 0.0096842C1.3209 0.0886123 0 1.30623 0 2.79142V4.95041C0 5.15447 0.186835 5.32003 0.417117 5.32003H2.64716V11.6304C2.64716 11.8344 2.83399 12 3.06428 12H12.5829C12.8132 12 13 11.8344 13 11.6304V2.79135C13 1.25128 11.5879 0 9.84993 0L9.84667 0.00198384ZM2.64696 4.58278H0.834033V2.79341C0.834033 1.81545 1.60962 0.997289 2.64696 0.792275V4.58278ZM12.1636 11.2637H3.47925V0.741219H9.84667C11.123 0.741219 12.1625 1.66238 12.1625 2.79336V11.2628L12.1636 11.2637Z" fill="#B89EC6"/>
<path d="M9.4579 3.09766H5.25086C5.02058 3.09766 4.83374 3.26321 4.83374 3.46727C4.83374 3.67133 5.02058 3.83689 5.25086 3.83689H9.4579C9.68818 3.83689 9.87501 3.67133 9.87501 3.46727C9.87501 3.26321 9.68818 3.09766 9.4579 3.09766Z" fill="#B89EC6"/>
<path d="M9.4579 8.21729H5.25086C5.02058 8.21729 4.83374 8.38284 4.83374 8.5869C4.83374 8.79096 5.02058 8.95652 5.25086 8.95652H9.4579C9.68818 8.95652 9.87501 8.79096 9.87501 8.5869C9.87501 8.38284 9.68818 8.21729 9.4579 8.21729Z" fill="#B89EC6"/>
<path d="M5.25086 6.39744H7.96212C8.1924 6.39744 8.37923 6.23188 8.37923 6.02782C8.37923 5.82376 8.1924 5.6582 7.96212 5.6582H5.25086C5.02058 5.6582 4.83374 5.82376 4.83374 6.02782C4.83374 6.23188 5.02058 6.39744 5.25086 6.39744Z" fill="#B89EC6"/>
</svg>
