<svg width="14" height="13" viewBox="0 0 14 13" fill="none" xmlns="http://www.w3.org/2000/svg">
<path d="M3.35863 0C2.47181 0 1.72612 0.532689 1.50206 1.24697H0.501992C0.435996 1.24675 0.370603 1.25792 0.309582 1.27984C0.248561 1.30176 0.193119 1.334 0.146454 1.3747C0.0997884 1.4154 0.0628224 1.46376 0.0376872 1.51697C0.0125519 1.57019 -0.000255387 1.62722 3.8607e-06 1.68478C0.00025892 1.74205 0.0134456 1.79871 0.038811 1.85154C0.0641764 1.90436 0.101224 1.95231 0.147838 1.99265C0.194452 2.03299 0.249719 2.06492 0.310485 2.08663C0.371251 2.10834 0.436325 2.1194 0.501992 2.11917H1.50011C1.72265 2.83543 2.4702 3.37041 3.35863 3.37041C4.23811 3.37041 4.97944 2.84578 5.21033 2.14047L13.5009 2.11917C13.5666 2.11906 13.6316 2.10767 13.6922 2.08565C13.7528 2.06363 13.8079 2.03142 13.8542 1.99084C13.9006 1.95027 13.9373 1.90213 13.9623 1.84918C13.9873 1.79622 14.0001 1.73949 14 1.68222C13.9997 1.56686 13.9471 1.45628 13.8535 1.37471C13.76 1.29313 13.6332 1.2472 13.5009 1.24697L5.224 1.26827C5.00855 0.543016 4.25445 8.73574e-07 3.35863 0ZM3.35863 0.872201C3.87966 0.872201 4.29132 1.23038 4.29132 1.68478C4.29132 2.13917 3.87966 2.49821 3.35863 2.49821C2.83761 2.49821 2.42693 2.13917 2.42693 1.68478C2.42693 1.23038 2.83761 0.872201 3.35863 0.872201ZM8.7008 4.2145C7.7993 4.2145 7.04064 4.75665 6.81688 5.48362H0.501992C0.436243 5.4834 0.37109 5.49448 0.31026 5.51625C0.249431 5.53801 0.19412 5.57002 0.147493 5.61045C0.100866 5.65088 0.0638392 5.69893 0.0385311 5.75185C0.013223 5.80477 0.000130814 5.86153 3.8607e-06 5.91887C-0.000126339 5.97635 0.0127761 6.03329 0.0379691 6.08641C0.0631621 6.13953 0.100149 6.18778 0.146801 6.22839C0.193454 6.269 0.248852 6.30116 0.309809 6.32303C0.370766 6.3449 0.436079 6.35605 0.501992 6.35582H6.81786C7.04234 7.08258 7.80006 7.62579 8.7008 7.62579C9.60154 7.62579 10.3593 7.08258 10.5837 6.35582H13.5009C13.5666 6.35571 13.6316 6.34432 13.6922 6.3223C13.7528 6.30028 13.8079 6.26806 13.8542 6.22749C13.9006 6.18691 13.9373 6.13877 13.9623 6.08582C13.9873 6.03287 14.0001 5.97614 14 5.91887C13.9997 5.8035 13.9471 5.69293 13.8535 5.61135C13.76 5.52978 13.6332 5.48385 13.5009 5.48362H10.5847C10.361 4.75665 9.6023 4.2145 8.7008 4.2145ZM8.7008 5.0867C9.23523 5.0867 9.6579 5.45278 9.6579 5.91887C9.6579 6.38496 9.23523 6.75359 8.7008 6.75359C8.16637 6.75359 7.7437 6.38496 7.7437 5.91887C7.7437 5.45278 8.16637 5.0867 8.7008 5.0867ZM4.81479 8.66068C3.91434 8.66068 3.15563 9.20341 2.93087 9.9298H0.501992C0.435996 9.92957 0.370603 9.94075 0.309582 9.96267C0.248561 9.98459 0.193119 10.0168 0.146454 10.0575C0.0997882 10.0982 0.0628222 10.1466 0.0376869 10.1998C0.0125517 10.253 -0.000255462 10.31 3.8607e-06 10.3676C0.00025897 10.4249 0.0134457 10.4815 0.0388111 10.5344C0.0641766 10.5872 0.101224 10.6351 0.147838 10.6755C0.194452 10.7158 0.24972 10.7477 0.310485 10.7695C0.371251 10.7912 0.436325 10.8022 0.501992 10.802H2.92989C3.15323 11.5302 3.91284 12.0745 4.81479 12.0745C5.71671 12.0745 6.47535 11.5302 6.69871 10.802H13.5009C13.633 10.8018 13.7597 10.756 13.8532 10.6746C13.9467 10.5932 13.9995 10.4828 14 10.3676C14.0003 10.3103 13.9875 10.2534 13.9626 10.2004C13.9376 10.1473 13.9009 10.0991 13.8546 10.0584C13.8082 10.0178 13.7531 9.98548 13.6924 9.9634C13.6318 9.94133 13.5667 9.92991 13.5009 9.9298H6.69773C6.47294 9.20344 5.71521 8.66068 4.81479 8.66068ZM4.81479 9.53288C5.34922 9.53288 5.77189 9.90151 5.77189 10.3676C5.77189 10.8337 5.34922 11.2023 4.81479 11.2023C4.28036 11.2023 3.85769 10.8337 3.85769 10.3676C3.85769 9.90151 4.28036 9.53288 4.81479 9.53288Z" fill="white"/>
</svg>
