<svg width="16" height="16" viewBox="0 0 16 16" fill="none" xmlns="http://www.w3.org/2000/svg">
<path d="M2.99989 5.66702C4.21838 0.469718 11.7876 0.469717 12.9999 5.66702C13.6758 8.56396 9.9999 14.3337 7.9999 14.3337C5.9999 14.3337 2.32345 8.5664 2.99989 5.66702Z" stroke="#B89EC6"/>
<path d="M11 6.6665C11 8.32336 9.65685 9.6665 8 9.6665C6.34315 9.6665 5 8.32336 5 6.6665C5 5.00965 6.34315 3.6665 8 3.6665C9.65685 3.6665 11 5.00965 11 6.6665Z" stroke="#B89EC6"/>
<path d="M7.40688 5.25722C7.37516 5.33379 7.37516 5.43086 7.37516 5.625V6.02167C7.37516 6.03109 7.37516 6.03581 7.37223 6.03874C7.3693 6.04167 7.36459 6.04167 7.35516 6.04167H6.9585C6.76435 6.04167 6.66728 6.04167 6.59071 6.07338C6.48862 6.11567 6.4075 6.19679 6.36521 6.29888C6.3335 6.37545 6.3335 6.47252 6.3335 6.66667C6.3335 6.86081 6.3335 6.95788 6.36521 7.03445C6.4075 7.13655 6.48862 7.21766 6.59071 7.25995C6.66728 7.29167 6.76435 7.29167 6.9585 7.29167H7.35516C7.36459 7.29167 7.3693 7.29167 7.37223 7.2946C7.37516 7.29752 7.37516 7.30224 7.37516 7.31167V7.70833C7.37516 7.90248 7.37516 7.99955 7.40688 8.07612C7.44917 8.17821 7.53028 8.25933 7.63238 8.30162C7.70895 8.33333 7.80602 8.33333 8.00016 8.33333C8.19431 8.33333 8.29138 8.33333 8.36795 8.30162C8.47004 8.25933 8.55116 8.17821 8.59345 8.07612C8.62516 7.99955 8.62516 7.90248 8.62516 7.70833V7.31167C8.62516 7.30224 8.62516 7.29752 8.62809 7.2946C8.63102 7.29167 8.63573 7.29167 8.64516 7.29167H9.04183C9.23597 7.29167 9.33304 7.29167 9.40961 7.25995C9.51171 7.21766 9.59282 7.13655 9.63511 7.03445C9.66683 6.95788 9.66683 6.86081 9.66683 6.66667C9.66683 6.47252 9.66683 6.37545 9.63511 6.29888C9.59282 6.19679 9.51171 6.11567 9.40961 6.07338C9.33304 6.04167 9.23597 6.04167 9.04183 6.04167H8.64516C8.63573 6.04167 8.63102 6.04167 8.62809 6.03874C8.62516 6.03581 8.62516 6.03109 8.62516 6.02167V5.625C8.62516 5.43086 8.62516 5.33379 8.59345 5.25722C8.55116 5.15512 8.47004 5.07401 8.36795 5.03172C8.29138 5 8.19431 5 8.00016 5C7.80602 5 7.70895 5 7.63238 5.03172C7.53028 5.07401 7.44917 5.15512 7.40688 5.25722Z" stroke="#B89EC6"/>
</svg>
