<svg width="17" height="13" viewBox="0 0 17 13" fill="none" xmlns="http://www.w3.org/2000/svg">
<path fill-rule="evenodd" clip-rule="evenodd" d="M0.935331 1.77645C0.899425 1.89917 0.879477 2.03036 0.879477 2.16662V10.8333C0.879477 10.8917 0.883466 10.9501 0.88985 11.0059L5.60718 7.00693L0.935331 1.77645ZM1.43642 1.07651L7.3434 7.69069C7.82694 8.23151 8.63923 8.23151 9.12275 7.69069L15.0297 1.07651C14.8374 0.943631 14.6076 0.866613 14.3611 0.866613H2.10508C1.85853 0.866613 1.62871 0.943631 1.43642 1.07651ZM15.5308 1.77645L10.859 7.007L15.5764 11.006C15.5828 10.9502 15.5867 10.8918 15.5867 10.8334V2.16669C15.5867 2.03043 15.5667 1.89917 15.5308 1.77645ZM15.1909 11.7897L10.2948 7.63837L9.71555 8.28668C8.91045 9.1889 7.55563 9.1889 6.75042 8.28668L6.17114 7.63837L1.27507 11.7897C1.4929 12.003 1.78494 12.1333 2.1049 12.1333H14.3609C14.6809 12.1333 14.9731 12.003 15.1909 11.7897ZM0.0625 2.16667C0.0625 0.96993 0.97692 0 2.10517 0H14.3612C15.4894 0 16.4038 0.96993 16.4038 2.16667V10.8333C16.4038 12.0301 15.4894 13 14.3612 13H2.10517C0.97692 13 0.0625 12.0301 0.0625 10.8333V2.16667Z" fill="#A74548"/>
</svg>
