<svg width="22" height="22" viewBox="0 0 22 22" fill="none" xmlns="http://www.w3.org/2000/svg">
<path d="M2.75 14.6667H4.58333M3.66667 18.3333V3.66667C3.66667 3.42355 3.76324 3.19039 3.93515 3.01849C4.10706 2.84658 4.34022 2.75 4.58333 2.75H18.3333C18.5764 2.75 18.8096 2.84658 18.9815 3.01849C19.1534 3.19039 19.25 3.42355 19.25 3.66667V18.3333C19.25 18.5764 19.1534 18.8096 18.9815 18.9815C18.8096 19.1534 18.5764 19.25 18.3333 19.25H4.58333C4.34022 19.25 4.10706 19.1534 3.93515 18.9815C3.76324 18.8096 3.66667 18.5764 3.66667 18.3333ZM15.5833 19.25H18.3333C18.5764 19.25 18.8096 19.1534 18.9815 18.9815C19.1534 18.8096 19.25 18.5764 19.25 18.3333V3.66667C19.25 3.42355 19.1534 3.19039 18.9815 3.01849C18.8096 2.84658 18.5764 2.75 18.3333 2.75H15.5833V19.25ZM2.75 7.33333H4.58333H2.75ZM2.75 11H4.58333H2.75Z" stroke="white" stroke-width="2" stroke-linecap="round" stroke-linejoin="round"/>
</svg>
