<svg width="22" height="22" viewBox="0 0 22 22" fill="none" xmlns="http://www.w3.org/2000/svg">
<path d="M8.25006 6.41667V8.25C8.25006 8.97935 8.53979 9.67882 9.05551 10.1945C9.57124 10.7103 10.2707 11 11.0001 11C11.7294 11 12.4289 10.7103 12.9446 10.1945C13.4603 9.67882 13.7501 8.97935 13.7501 8.25V6.41667M18.2234 19.25H3.77672C3.64737 19.2508 3.51931 19.2242 3.40098 19.1719C3.28264 19.1197 3.17669 19.043 3.09011 18.9469C3.00353 18.8508 2.93827 18.7375 2.89862 18.6143C2.85897 18.4912 2.84583 18.3611 2.86006 18.2325L4.49172 3.56584C4.51665 3.34059 4.62412 3.13257 4.7934 2.9819C4.96269 2.83124 5.18178 2.74863 5.40839 2.75H16.5917C16.8183 2.74863 17.0374 2.83124 17.2067 2.9819C17.376 3.13257 17.4835 3.34059 17.5084 3.56584L19.1401 18.2325C19.1543 18.3611 19.1411 18.4912 19.1015 18.6143C19.0618 18.7375 18.9966 18.8508 18.91 18.9469C18.8234 19.043 18.7175 19.1197 18.5991 19.1719C18.4808 19.2242 18.3527 19.2508 18.2234 19.25Z" stroke="white" stroke-width="2" stroke-linecap="round" stroke-linejoin="round"/>
</svg>
