<svg width="30" height="30" viewBox="0 0 30 30" fill="none" xmlns="http://www.w3.org/2000/svg">
<path d="M10 6.25H25C25.3315 6.25 25.6495 6.3817 25.8839 6.61612C26.1183 6.85054 26.25 7.16848 26.25 7.5V22.5C26.25 22.8315 26.1183 23.1495 25.8839 23.3839C25.6495 23.6183 25.3315 23.75 25 23.75H10C9.66848 23.75 9.35054 23.6183 9.11612 23.3839C8.8817 23.1495 8.75 22.8315 8.75 22.5V21.25" stroke="#0F88D3" stroke-width="2" stroke-linecap="round" stroke-linejoin="round"/>
<path d="M10 16.25H3.75M15 6.25V13.75L17.5 12.5L20 13.75V6.25H15ZM3.75 11.25H8.75H3.75Z" stroke="#FF7583" stroke-width="2" stroke-linecap="round" stroke-linejoin="round"/>
</svg>
