<svg width="24" height="24" viewBox="0 0 24 24" fill="none" xmlns="http://www.w3.org/2000/svg">
<path d="M9 15H15C16.3261 15 17.5979 15.5268 18.5355 16.4645C19.4732 17.4021 20 18.6739 20 20C20 20.2652 19.8946 20.5196 19.7071 20.7071C19.5196 20.8946 19.2652 21 19 21H5C4.73478 21 4.48043 20.8946 4.29289 20.7071C4.10536 20.5196 4 20.2652 4 20C4 18.6739 4.52678 17.4021 5.46447 16.4645C6.40215 15.5268 7.67392 15 9 15V15Z" stroke="#088AD0" stroke-width="2" stroke-linecap="round" stroke-linejoin="round"/>
<path d="M12 11C14.2091 11 16 9.20914 16 7C16 4.79086 14.2091 3 12 3C9.79086 3 8 4.79086 8 7C8 9.20914 9.79086 11 12 11Z" stroke="#FF6B7B" stroke-width="2" stroke-linecap="round" stroke-linejoin="round"/>
</svg>
