<svg width="24" height="24" viewBox="0 0 24 24" fill="none" xmlns="http://www.w3.org/2000/svg">
<path d="M16 13H18.5C18.8978 13 19.2794 12.842 19.5607 12.5607C19.842 12.2794 20 11.8978 20 11.5C20 11.1022 19.842 10.7206 19.5607 10.4393C19.2794 10.158 18.8978 10 18.5 10H17.5C17.1022 10 16.7206 9.84196 16.4393 9.56066C16.158 9.27936 16 8.89782 16 8.5C16 8.10218 16.158 7.72064 16.4393 7.43934C16.7206 7.15804 17.1022 7 17.5 7H20" stroke="#FF6B7B" stroke-width="2" stroke-linecap="round" stroke-linejoin="round"/>
<path d="M12 11H8M18 7V6V7ZM18 14V13V14ZM12 15H8H12Z" stroke="#FF6B7B" stroke-width="2" stroke-linecap="round" stroke-linejoin="round"/>
<path d="M14 3H5C4.73478 3 4.48043 3.10536 4.29289 3.29289C4.10536 3.48043 4 3.73478 4 4V21L6.34 20L8.67 21L11 20L13.33 21L15.66 20L18 21V18" stroke="#088AD0" stroke-width="2" stroke-linecap="round" stroke-linejoin="round"/>
</svg>
