<svg width="24" height="24" viewBox="0 0 24 24" fill="none" xmlns="http://www.w3.org/2000/svg">
<path d="M15 8H9V15L12 14L15 15V8Z" stroke="#FF6B7B" stroke-width="2" stroke-linecap="round" stroke-linejoin="round"/>
<path d="M21 8V20C21 20.2652 20.8946 20.5196 20.7071 20.7071C20.5196 20.8946 20.2652 21 20 21H4C3.73478 21 3.48043 20.8946 3.29289 20.7071C3.10536 20.5196 3 20.2652 3 20V8" stroke="#088AD0" stroke-width="2" stroke-linecap="round" stroke-linejoin="round"/>
<path d="M3 8L7.71 3.29C7.89626 3.10526 8.14766 3.0011 8.41 3H15.59C15.8523 3.0011 16.1037 3.10526 16.29 3.29L21 8H3Z" stroke="#088AD0" stroke-width="2" stroke-linecap="round" stroke-linejoin="round"/>
</svg>
