<svg width="24" height="25" viewBox="0 0 24 25" fill="none" xmlns="http://www.w3.org/2000/svg">
<path d="M21 15.5V19.43C21.0031 19.7189 20.9435 20.0051 20.8254 20.2688C20.7072 20.5325 20.5334 20.7674 20.3157 20.9575C20.0981 21.1476 19.8419 21.2882 19.5647 21.3698C19.2875 21.4514 18.9959 21.4719 18.71 21.43C14.747 20.9209 11.066 19.1077 8.24698 16.276C5.428 13.4444 3.63131 9.75526 3.14001 5.78997C3.09823 5.50492 3.11853 5.21421 3.19951 4.93773C3.2805 4.66125 3.42026 4.40553 3.60923 4.18807C3.7982 3.97061 4.03192 3.79654 4.2944 3.67778C4.55688 3.55902 4.84192 3.49837 5.13001 3.49997H9.00001C9.24722 3.49847 9.48623 3.5886 9.6709 3.75295C9.85557 3.91731 9.97282 4.14425 10 4.38997C10.0992 5.70054 10.4382 6.98177 11 8.16997C11.0963 8.395 11.1068 8.64754 11.0294 8.87977C10.952 9.11199 10.7921 9.30775 10.58 9.42997L9.72001 9.91997C9.59605 9.98815 9.48796 10.0819 9.4029 10.1949C9.31783 10.3079 9.25771 10.4377 9.22652 10.5757C9.19533 10.7137 9.19378 10.8568 9.22196 10.9954C9.25014 11.134 9.30742 11.2651 9.39001 11.38C10.3793 12.8292 11.6308 14.0806 13.08 15.07C13.1949 15.1526 13.326 15.2098 13.4646 15.238C13.6032 15.2662 13.7463 15.2646 13.8843 15.2335C14.0222 15.2023 14.152 15.1421 14.2651 15.0571C14.3781 14.972 14.4718 14.8639 14.54 14.74L15.03 13.88C15.1595 13.6651 15.3651 13.5068 15.6059 13.4364C15.8467 13.366 16.1052 13.3887 16.33 13.5C17.5182 14.0618 18.7994 14.4007 20.11 14.5C20.3557 14.5272 20.5827 14.6444 20.747 14.8291C20.9114 15.0137 21.0015 15.2528 21 15.5Z" stroke="#00565D" stroke-width="2" stroke-linecap="round" stroke-linejoin="round"/>
<path d="M16.3752 2.5L15 6.25617" stroke="#BA9FC8" stroke-width="2" stroke-linecap="round"/>
<path d="M21.8823 8.5L18.0001 9.46356" stroke="#BA9FC8" stroke-width="2" stroke-linecap="round"/>
</svg>
