<svg width="31" height="30" viewBox="0 0 31 30" fill="none" xmlns="http://www.w3.org/2000/svg">
<path fill-rule="evenodd" clip-rule="evenodd" d="M21.3316 2.51292C23.1298 2.40054 24.9029 3.02489 26.2391 4.24862C27.4628 5.58474 28.0872 7.35791 27.9873 9.16853V20.8315C28.0997 22.6421 27.4628 24.4153 26.2516 25.7514C24.9154 26.9751 23.1298 27.5995 21.3316 27.4871H9.66859C7.85795 27.5995 6.08477 26.9751 4.74864 25.7514C3.52489 24.4153 2.90053 22.6421 3.01292 20.8315V9.16853C2.90053 7.35791 3.52489 5.58474 4.74864 4.24862C6.08477 3.02489 7.85795 2.40054 9.66859 2.51292H21.3316ZM14.2264 21.0562L22.6303 12.6275C23.392 11.8533 23.392 10.6045 22.6303 9.84283L21.0069 8.21951C20.2327 7.44532 18.984 7.44532 18.2098 8.21951L17.3732 9.06864C17.2483 9.19351 17.2483 9.40579 17.3732 9.53066C17.3732 9.53066 19.3586 11.5036 19.3961 11.5536C19.5335 11.7034 19.6209 11.9032 19.6209 12.128C19.6209 12.5775 19.2587 12.9521 18.7967 12.9521C18.5844 12.9521 18.3846 12.8647 18.2473 12.7274L16.1619 10.6545C16.062 10.5546 15.8872 10.5546 15.7873 10.6545L9.83092 16.6108C9.41884 17.0229 9.18159 17.5723 9.1691 18.1592L9.09418 21.1187C9.09418 21.281 9.14413 21.4308 9.25651 21.5432C9.3689 21.6556 9.51874 21.718 9.68107 21.718H12.6156C13.2149 21.718 13.7894 21.4808 14.2264 21.0562Z" fill="#B89EC6"/>
</svg>
