<svg width="23" height="23" viewBox="0 0 23 23" fill="none" xmlns="http://www.w3.org/2000/svg">
<path d="M12.2409 11.772C12.9185 11.772 13.5809 11.6127 14.1444 11.3142C14.7078 11.0157 15.1469 10.5914 15.4063 10.0951C15.6656 9.59866 15.7334 9.05244 15.6012 8.52548C15.469 7.99851 15.1427 7.51446 14.6636 7.13454C14.1844 6.75462 13.5739 6.49589 12.9093 6.39107C12.2447 6.28625 11.5558 6.34004 10.9297 6.54566C10.3037 6.75127 9.76859 7.09946 9.39211 7.5462C9.01564 7.99294 8.8147 8.51817 8.8147 9.05546C8.81553 9.77574 9.17677 10.4663 9.81912 10.9756C10.4615 11.485 11.3325 11.7714 12.2409 11.772ZM12.2409 7.3367C12.6696 7.3367 13.0887 7.4375 13.4452 7.62636C13.8017 7.81522 14.0795 8.08365 14.2436 8.39772C14.4077 8.71178 14.4506 9.05736 14.3669 9.39077C14.2833 9.72418 14.0768 10.0304 13.7737 10.2708C13.4705 10.5112 13.0843 10.6749 12.6638 10.7412C12.2433 10.8075 11.8074 10.7735 11.4113 10.6434C11.0152 10.5133 10.6767 10.293 10.4385 10.0103C10.2003 9.7277 10.0732 9.3954 10.0732 9.05546C10.074 8.59982 10.3026 8.16303 10.709 7.84084C11.1153 7.51865 11.6662 7.33736 12.2409 7.3367Z" fill="#B89EC6"/>
<path d="M12.2414 12.6792C11.1556 12.6535 10.0827 12.8873 9.142 13.3548C8.20133 13.8222 7.42972 14.5049 6.9129 15.327C6.87598 15.3945 6.85703 15.4683 6.85743 15.543V17.608C6.85743 17.7412 6.91895 17.869 7.02846 17.9633C7.13797 18.0575 7.2865 18.1104 7.44138 18.1104H17.0415C17.1963 18.1104 17.3449 18.0575 17.4544 17.9633C17.5639 17.869 17.6254 17.7412 17.6254 17.608V15.543C17.6258 15.4683 17.6069 15.3945 17.5699 15.327C17.0531 14.5049 16.2815 13.8222 15.3408 13.3548C14.4002 12.8873 13.3273 12.6535 12.2414 12.6792ZM16.4575 17.1056H8.02532V15.6686C8.45906 15.0448 9.07853 14.5319 9.81973 14.1831C10.5609 13.8342 11.397 13.6619 12.2414 13.684C13.0856 13.6616 13.9215 13.8335 14.6626 14.182C15.4038 14.5304 16.0234 15.0428 16.4575 15.6661V17.1056Z" fill="#B89EC6"/>
<path d="M19.5958 0H2.9289C2.1534 0 1.40967 0.277337 0.861307 0.770999C0.312948 1.26466 0.00488281 1.93421 0.00488281 2.63235V20.0059C0.00488281 20.704 0.312948 21.3736 0.861307 21.8673C1.40967 22.3609 2.1534 22.6382 2.9289 22.6382H19.5958C20.3713 22.6382 21.115 22.3609 21.6634 21.8673C22.2117 21.3736 22.5198 20.704 22.5198 20.0059V2.63235C22.5198 1.93421 22.2117 1.26466 21.6634 0.770999C21.115 0.277337 20.3713 0 19.5958 0ZM4.09851 21.5853H2.9289C2.4636 21.5853 2.01736 21.4189 1.68834 21.1227C1.35933 20.8265 1.17449 20.4248 1.17449 20.0059V2.63235C1.17449 2.21347 1.35933 1.81174 1.68834 1.51554C2.01736 1.21934 2.4636 1.05294 2.9289 1.05294H4.09851V21.5853ZM21.3502 20.0059C21.3502 20.4248 21.1654 20.8265 20.8363 21.1227C20.5073 21.4189 20.0611 21.5853 19.5958 21.5853H5.26811V1.05294H19.5958C20.0611 1.05294 20.5073 1.21934 20.8363 1.51554C21.1654 1.81174 21.3502 2.21347 21.3502 2.63235V20.0059Z" fill="#B89EC6"/>
</svg>
